<svg width="30" height="30" viewBox="0 0 30 30" fill="none" xmlns="http://www.w3.org/2000/svg">
<g clip-path="url(#clip0_6524_2)">
<path d="M15 30C23.2843 30 30 23.2843 30 15C30 6.71573 23.2843 0 15 0C6.71573 0 0 6.71573 0 15C0 23.2843 6.71573 30 15 30Z" fill="white"/>
<path d="M10.0773 19.6666C9.77022 19.6666 9.514 19.5639 9.30867 19.3586C9.10333 19.1533 9.00044 18.8968 9 18.5893V11.4106C9 11.1035 9.10289 10.8473 9.30867 10.6419C9.51444 10.4366 9.77044 10.3337 10.0767 10.3333H19.9233C20.23 10.3333 20.486 10.4361 20.6913 10.6419C20.8967 10.8477 20.9996 11.1039 21 11.4106V18.5899C21 18.8966 20.8971 19.1528 20.6913 19.3586C20.4856 19.5644 20.2296 19.667 19.9233 19.6666H10.0773ZM15 15.0773L9.66667 11.5899V18.5899C9.66667 18.7095 9.70511 18.8077 9.782 18.8846C9.85889 18.9615 9.95733 18.9999 10.0773 18.9999H19.9233C20.0429 18.9999 20.1411 18.9615 20.218 18.8846C20.2949 18.8077 20.3333 18.7093 20.3333 18.5893V11.5893L15 15.0773ZM15 14.3333L20.128 10.9999H9.872L15 14.3333ZM9.66667 11.5899V10.9999V18.5899C9.66667 18.7095 9.70511 18.8077 9.782 18.8846C9.85889 18.9615 9.95733 18.9999 10.0773 18.9999H9.66667V11.5899Z" fill="black"/>
</g>
<defs>
<clipPath id="clip0_6524_2">
<rect width="30" height="30" fill="white"/>
</clipPath>
</defs>
</svg>
