<svg xmlns="http://www.w3.org/2000/svg" viewBox="0 0 48 48" width="48" height="48">
  <path fill="#FF8F00" d="M8,37L23.234,8.436c0.321-0.602,1.189-0.591,1.494,0.02L30,19L8,37z"/>
  <path fill="#FFA000" d="M8,36.992l5.546-34.199c0.145-0.895,1.347-1.089,1.767-0.285L26,22.992L8,36.992z"/>
  <path fill="#FF6F00" d="M8,37.992l0.054-0.078L26,22.992l-5.768-10.757c-0.268-0.5-0.986-0.5-1.254,0L8,37.992z"/>
  <path fill="#FFC400" d="M8,37l16.102-7.398l-4.834-9.024c-0.268-0.5-0.986-0.5-1.254,0L8,37z"/>
  <path fill="#FFC400" d="M8,37l32-20L35.07,9.726c-0.27-0.497-0.983-0.497-1.254,0L26,23L8,37z"/>
  <path fill="#FFAB00" d="M8,37L40,17l0,17c0,1.657-1.343,3-3,3L8,37z"/>
</svg>
